<svg width="34" height="35" viewBox="0 0 34 35" fill="none" xmlns="http://www.w3.org/2000/svg">
<g id="Group">
<g id="Vector">
<path d="M33.3812 23.0872L31.7145 20.2037C31.6778 20.14 31.6249 20.0872 31.5612 20.0506C31.4976 20.014 31.4254 19.9949 31.352 19.9952C31.3009 19.9961 31.2502 20.0052 31.202 20.0223L29.1312 20.8563C28.7014 20.5216 28.2292 20.2454 27.727 20.0348L27.4166 17.833C27.3964 17.7368 27.3442 17.6501 27.2686 17.5873C27.1929 17.5244 27.0982 17.4891 26.9999 17.4869H23.6666C23.5664 17.4893 23.4701 17.5263 23.3942 17.5917C23.3182 17.6571 23.2672 17.7468 23.2499 17.8456L22.9415 20.0494C22.4399 20.2623 21.9673 20.5384 21.5353 20.8709L19.4645 20.0369C19.3718 20.0005 19.2691 19.9986 19.175 20.0315C19.081 20.0644 19.0019 20.1299 18.952 20.2162L17.2853 23.0997C17.2345 23.1857 17.2162 23.2871 17.2338 23.3854C17.2514 23.4838 17.3037 23.5725 17.3812 23.6355L19.1436 25.0179C19.1054 25.2859 19.0853 25.5562 19.0832 25.8269C19.0853 26.1059 19.1055 26.3845 19.1436 26.6609L17.3812 28.0411C17.3032 28.1042 17.2505 28.1934 17.2329 28.2922C17.2153 28.391 17.2339 28.4928 17.2853 28.579L18.952 31.4605C19.0019 31.5467 19.081 31.6122 19.175 31.6451C19.2691 31.678 19.3718 31.6761 19.4645 31.6398L21.5353 30.8058C21.965 31.1416 22.438 31.418 22.9415 31.6273L23.2499 33.8228C23.2702 33.9188 23.3224 34.0052 23.3981 34.0677C23.4738 34.1302 23.5685 34.1651 23.6666 34.1668H26.9999C27.0999 34.1649 27.1961 34.1283 27.2721 34.0633C27.3481 33.9983 27.3992 33.9088 27.4166 33.8102L27.727 31.6064C28.2281 31.3927 28.6999 31.116 29.1312 30.7829L31.202 31.6169C31.2945 31.6534 31.397 31.6556 31.491 31.6231C31.585 31.5906 31.6642 31.5255 31.7145 31.4396L33.3812 28.5561C33.432 28.4701 33.4503 28.3687 33.4327 28.2704C33.4151 28.172 33.3628 28.0833 33.2853 28.0202L31.5249 26.6379C31.5624 26.3692 31.5819 26.0982 31.5832 25.8269C31.5814 25.5521 31.5619 25.2777 31.5249 25.0054L33.2853 23.623C33.3628 23.56 33.4151 23.4713 33.4327 23.3729C33.4503 23.2746 33.432 23.1732 33.3812 23.0872ZM25.3332 28.9543C24.7152 28.9543 24.111 28.7709 23.5971 28.4272C23.0832 28.0836 22.6826 27.5952 22.4461 27.0237C22.2096 26.4522 22.1477 25.8234 22.2683 25.2167C22.3888 24.61 22.6865 24.0528 23.1235 23.6154C23.5605 23.178 24.1174 22.8801 24.7236 22.7595C25.3298 22.6388 25.9581 22.7007 26.5291 22.9375C27.1002 23.1742 27.5882 23.575 27.9316 24.0893C28.2749 24.6036 28.4582 25.2083 28.4582 25.8269C28.4582 26.6563 28.129 27.4518 27.543 28.0383C26.9569 28.6248 26.162 28.9543 25.3332 28.9543Z" fill="#414E62"/>
<path d="M28.9582 13.857C30.6971 14.382 32.3029 15.2751 33.6666 16.4757C33.3932 12.1512 31.4507 8.10239 28.2494 5.18486C25.0481 2.26734 20.8388 0.709636 16.5111 0.840925C12.1833 0.972215 8.07603 2.78221 5.05718 5.88843C2.03833 8.99466 0.344362 13.1538 0.333252 17.4869V26.6901L11.6124 15.402H4.68741C4.68741 15.3561 4.70203 15.3081 4.71036 15.2623C4.82375 14.635 4.98533 14.0174 5.19369 13.415C5.23119 13.3045 5.27287 13.1961 5.31245 13.0897C5.53389 12.4964 5.79991 11.9206 6.10826 11.3675C6.15409 11.2883 6.20408 11.2132 6.24991 11.134C6.58212 10.5673 6.95754 10.0271 7.37283 9.51816L7.40824 9.47853C7.83094 8.97837 8.29134 8.51136 8.78535 8.0816C8.8416 8.03364 8.89161 7.98152 8.94786 7.93357C9.43547 7.52572 9.95285 7.15496 10.4957 6.82436C10.5874 6.76807 10.677 6.71177 10.7708 6.65756C11.3156 6.34312 11.8831 6.06992 12.4687 5.84025C12.5708 5.80064 12.677 5.76519 12.7791 5.72766C13.3894 5.50472 14.0163 5.33043 14.6541 5.20642C14.7374 5.18974 14.8207 5.18347 14.9041 5.16888C17.9024 4.65518 20.9849 5.25443 23.573 6.85412C26.1611 8.45382 28.0768 10.9439 28.9603 13.857H28.9582Z" fill="#414E62"/>
</g>
</g>
</svg>
