<svg width="36" height="35" viewBox="0 0 36 35" fill="none" xmlns="http://www.w3.org/2000/svg">
<g id="Group">
<g id="Vector">
<path d="M15.8192 8.3213C15.8192 12.2129 20.524 15.3213 22.378 15.3213C24.232 15.3213 28.9368 12.2216 28.9368 8.3213C28.9368 8.08723 28.9368 7.85104 28.9368 7.6126C29.2471 5.53255 28.7547 3.4123 27.5595 1.68229C26.0545 0.588805 24.2423 -0.00012207 22.3824 -0.00012207C20.5225 -0.00012207 18.7102 0.588805 17.2053 1.68229C16.0131 3.41365 15.521 5.53268 15.8279 7.6126C15.817 7.85104 15.8192 8.08723 15.8192 8.3213Z" fill="#414E62"/>
<path d="M33.7575 23.6054C33.4842 22.5554 31.9735 21.617 30.6858 21.2648C27.9607 20.5283 25.1834 20.0011 22.378 19.6876C19.5677 20.0014 16.7853 20.5287 14.0549 21.2648C12.7693 21.617 11.2586 22.5554 10.9941 23.6054L9.8157 28.0635L9.26476 30.1854C12.9311 33.2828 17.5716 34.9876 22.37 35C27.1685 35.0124 31.8177 33.3316 35.5 30.2532L33.7575 23.6054Z" fill="#414E62"/>
<path d="M10.3382 15.8595C11.8818 15.5447 13.252 14.6638 14.1795 13.3898C13.1343 11.9043 12.5613 10.1378 12.5354 8.32132V7.64761C12.5118 6.65646 12.5425 5.66477 12.6272 4.67698C11.8852 4.4617 11.115 4.35992 10.3426 4.3751C9.6436 4.30422 8.93754 4.37982 8.26939 4.59714C7.60124 4.81445 6.98567 5.16871 6.46195 5.63728C5.56597 6.93478 5.19631 8.52447 5.42785 10.0844C5.42785 10.2616 5.42785 10.441 5.42785 10.616C5.60379 11.8909 6.17052 13.0797 7.04995 14.0188C7.92939 14.9579 9.07824 15.601 10.3382 15.8595Z" fill="#414E62"/>
<path d="M10.3382 19.1407C8.22985 19.3759 6.14247 19.7715 4.09422 20.3241C3.13226 20.5866 1.9976 21.2932 1.79428 22.0742L0.919767 25.4188L0.5 27.0135C2.09044 28.3462 3.93296 29.3447 5.91757 29.9492L6.62156 27.2388L7.80434 22.7654C8.27869 21.2345 9.32491 19.9455 10.7252 19.1669C10.5962 19.1582 10.4475 19.1407 10.3382 19.1407Z" fill="#414E62"/>
</g>
</g>
</svg>
