<svg width="14" height="15" viewBox="0 0 14 15" fill="none" xmlns="http://www.w3.org/2000/svg">
<g id="Group">
<g id="Vector">
<path d="M8.75 9.01904V5.51904H7V4.64404H8.75V2.01904C8.74862 1.55534 8.5638 1.11103 8.23592 0.78314C7.90803 0.455251 7.4637 0.270428 7 0.269043H6.125C6.125 0.733172 5.94063 1.17829 5.61244 1.50648C5.28425 1.83467 4.83913 2.01904 4.375 2.01904C3.91087 2.01904 3.46575 1.83467 3.13756 1.50648C2.80937 1.17829 2.625 0.733172 2.625 0.269043H1.75C1.2863 0.270428 0.841973 0.455251 0.514084 0.78314C0.186195 1.11103 0.00138489 1.55534 0 2.01904V4.64404H1.75V5.51904H0V12.519C0.00138489 12.9827 0.186195 13.4271 0.514084 13.7549C0.841973 14.0828 1.2863 14.2677 1.75 14.269H2.625C2.625 13.8049 2.80937 13.3598 3.13756 13.0316C3.46575 12.7034 3.91087 12.519 4.375 12.519C4.83913 12.519 5.28425 12.7034 5.61244 13.0316C5.94063 13.3598 6.125 13.8049 6.125 14.269H7V9.01904H8.75ZM5.25 5.51904H3.5V4.64404H5.25V5.51904Z" fill="white"/>
<path d="M12.25 10.769V9.01904H10.5V10.769H8.75V12.519H10.5V14.269H12.25V12.519H14V10.769H12.25Z" fill="white"/>
</g>
</g>
</svg>
