<svg width="84" height="31" viewBox="0 0 84 31" fill="none" xmlns="http://www.w3.org/2000/svg">
<path d="M35.6248 15.235C36.1337 14.4118 36.8597 13.7308 37.8026 13.1919C38.7606 12.6381 39.8158 12.3612 40.9683 12.3612C42.4501 12.3612 43.6326 12.8028 44.5156 13.6859C45.4137 14.554 45.8627 15.7439 45.8627 17.2557C45.8627 17.6897 45.8178 18.1537 45.728 18.6476C45.5035 19.9049 45.0545 21.0125 44.3809 21.9705C43.7074 22.9284 42.8767 23.6693 41.8888 24.1932C40.9159 24.7171 39.8682 24.979 38.7456 24.979C37.5931 24.979 36.6426 24.7096 35.8942 24.1707C35.1459 23.6169 34.6444 22.9284 34.39 22.1052L32.9082 30.5919H31.3366L34.5247 12.5408H36.0963L35.6248 15.235ZM44.134 18.6476C44.2088 18.1986 44.2462 17.8169 44.2462 17.5026C44.2462 16.3202 43.8945 15.3997 43.191 14.7411C42.5025 14.0675 41.5895 13.7308 40.4519 13.7308C39.6137 13.7308 38.8129 13.9328 38.0496 14.3369C37.2862 14.7411 36.6351 15.3173 36.0963 16.0657C35.5575 16.8141 35.1982 17.6822 35.0186 18.6701C34.9438 19.0892 34.9064 19.4634 34.9064 19.7927C34.9064 20.9602 35.2581 21.8882 35.9616 22.5767C36.6651 23.2652 37.5781 23.6094 38.7007 23.6094C39.5688 23.6094 40.3771 23.4149 41.1255 23.0257C41.8888 22.6216 42.5324 22.0453 43.0563 21.2969C43.5951 20.5336 43.9544 19.6505 44.134 18.6476ZM56.0963 22.3073C55.6023 23.1005 54.8914 23.7516 53.9634 24.2605C53.0503 24.7694 52.0325 25.0239 50.91 25.0239C49.8323 25.0239 48.9716 24.747 48.328 24.1932C47.6994 23.6244 47.3851 22.8461 47.3851 21.8582C47.3851 21.0051 47.6171 20.2567 48.0811 19.6131C48.56 18.9695 49.2186 18.4755 50.0568 18.1313C50.895 17.772 51.8305 17.5924 52.8632 17.5924H56.927C56.9868 17.0835 57.0168 16.7318 57.0168 16.5372C57.0168 15.5793 56.7698 14.8533 56.2759 14.3594C55.7969 13.8505 55.0859 13.596 54.143 13.596C53.2 13.596 52.3768 13.8655 51.6733 14.4043C50.9698 14.9431 50.4534 15.7065 50.1242 16.6944H48.575C49.0091 15.3622 49.7275 14.2995 50.7303 13.5062C51.7332 12.698 52.968 12.2939 54.4349 12.2939C55.7071 12.2939 56.7249 12.6456 57.4883 13.3491C58.2516 14.0526 58.6333 15.0479 58.6333 16.3351C58.6333 16.7243 58.5884 17.1584 58.4986 17.6373L57.2413 24.7994H55.6697L56.0963 22.3073ZM51.4937 23.6543C52.2571 23.6543 52.998 23.4822 53.7164 23.138C54.4498 22.7787 55.0785 22.2698 55.6023 21.6113C56.1262 20.9377 56.4705 20.1519 56.6351 19.2538L56.7249 18.7599H52.6612C51.5386 18.7599 50.648 19.0293 49.9894 19.5682C49.3309 20.092 49.0016 20.7581 49.0016 21.5664C49.0016 22.21 49.2261 22.7189 49.6751 23.0931C50.1242 23.4673 50.7303 23.6543 51.4937 23.6543ZM64.9146 24.979C63.6723 24.979 62.662 24.6946 61.8837 24.1258C61.1054 23.5421 60.7162 22.7488 60.7162 21.746C60.7162 21.5664 60.7237 21.4316 60.7387 21.3418H62.2654C62.2055 22.0603 62.415 22.6365 62.894 23.0706C63.373 23.5047 64.0765 23.7217 65.0045 23.7217C65.9474 23.7217 66.7033 23.5271 67.2721 23.138C67.8408 22.7338 68.1252 22.2025 68.1252 21.5439C68.1252 21.1547 68.0055 20.8255 67.766 20.556C67.5265 20.2866 67.2272 20.0696 66.8679 19.9049C66.5237 19.7253 66.0372 19.5233 65.4086 19.2987C64.6303 19.0144 64.0016 18.7524 63.5226 18.5129C63.0587 18.2585 62.6545 17.9142 62.3103 17.4802C61.981 17.0311 61.8163 16.4698 61.8163 15.7963C61.8163 15.1228 62.0109 14.524 62.4001 14.0002C62.7892 13.4763 63.3206 13.0722 63.9941 12.7878C64.6826 12.5034 65.461 12.3612 66.3291 12.3612C67.5415 12.3612 68.5293 12.6606 69.2927 13.2593C70.071 13.858 70.4602 14.6513 70.4602 15.6391C70.4602 15.8487 70.4527 16.0058 70.4377 16.1106H68.9559C68.9709 16.0507 68.9784 15.9535 68.9784 15.8188C68.9784 15.1602 68.7164 14.6288 68.1926 14.2247C67.6837 13.8206 67.0251 13.6185 66.2168 13.6185C65.4086 13.6185 64.735 13.8131 64.1962 14.2022C63.6723 14.5764 63.4104 15.0853 63.4104 15.7289C63.4104 16.163 63.5376 16.5297 63.7921 16.8291C64.0465 17.1135 64.3608 17.3455 64.735 17.5251C65.1092 17.7047 65.6106 17.9142 66.2393 18.1537C66.9877 18.4381 67.5864 18.7 68.0354 18.9395C68.4994 19.179 68.8886 19.5083 69.2029 19.9274C69.5172 20.3465 69.6744 20.8704 69.6744 21.499C69.6744 22.5617 69.2328 23.4074 68.3497 24.036C67.4666 24.6647 66.3216 24.979 64.9146 24.979ZM76.3597 24.979C75.1174 24.979 74.107 24.6946 73.3287 24.1258C72.5504 23.5421 72.1612 22.7488 72.1612 21.746C72.1612 21.5664 72.1687 21.4316 72.1837 21.3418H73.7104C73.6505 22.0603 73.8601 22.6365 74.339 23.0706C74.818 23.5047 75.5215 23.7217 76.4495 23.7217C77.3925 23.7217 78.1483 23.5271 78.7171 23.138C79.2859 22.7338 79.5703 22.2025 79.5703 21.5439C79.5703 21.1547 79.4505 20.8255 79.211 20.556C78.9716 20.2866 78.6722 20.0696 78.313 19.9049C77.9687 19.7253 77.4823 19.5233 76.8536 19.2987C76.0753 19.0144 75.4467 18.7524 74.9677 18.5129C74.5037 18.2585 74.0996 17.9142 73.7553 17.4802C73.426 17.0311 73.2614 16.4698 73.2614 15.7963C73.2614 15.1228 73.4559 14.524 73.8451 14.0002C74.2343 13.4763 74.7656 13.0722 75.4392 12.7878C76.1277 12.5034 76.906 12.3612 77.7741 12.3612C78.9865 12.3612 79.9744 12.6606 80.7377 13.2593C81.5161 13.858 81.9052 14.6513 81.9052 15.6391C81.9052 15.8487 81.8977 16.0058 81.8828 16.1106H80.401C80.4159 16.0507 80.4234 15.9535 80.4234 15.8188C80.4234 15.1602 80.1615 14.6288 79.6376 14.2247C79.1287 13.8206 78.4701 13.6185 77.6619 13.6185C76.8536 13.6185 76.1801 13.8131 75.6412 14.2022C75.1174 14.5764 74.8554 15.0853 74.8554 15.7289C74.8554 16.163 74.9827 16.5297 75.2371 16.8291C75.4916 17.1135 75.8059 17.3455 76.1801 17.5251C76.5543 17.7047 77.0557 17.9142 77.6843 18.1537C78.4327 18.4381 79.0314 18.7 79.4805 18.9395C79.9445 19.179 80.3336 19.5083 80.6479 19.9274C80.9623 20.3465 81.1194 20.8704 81.1194 21.499C81.1194 22.5617 80.6779 23.4074 79.7948 24.036C78.9117 24.6647 77.7667 24.979 76.3597 24.979Z" fill="#141C24"/>
<g clip-path="url(#clip0_2034_2174)">
<path d="M19.4327 7.61389H11.993L9.70152 18.6247L8.22616 7.61389H1.32019L5.49515 25.719H13.3429L15.6031 15.5108L17.7376 25.719L20.3187 11.6971L19.4327 7.61389Z" fill="#141C24"/>
<path d="M31.6782 1.29724H24.0226L22.1876 16.6339H28.1988L31.6782 1.29724Z" fill="#141C24"/>
<path d="M20.1294 25.7249H27.0899L28.2932 18.8651H21.3327L20.1294 25.7249Z" fill="#CC3366"/>
</g>
<defs>
<clipPath id="clip0_2034_2174">
<rect width="30.3756" height="24.4326" fill="white" transform="translate(1.32019 1.29724)"/>
</clipPath>
</defs>
</svg>
