<svg width="126" height="46" viewBox="0 0 126 46" fill="none" xmlns="http://www.w3.org/2000/svg">
<path d="M53.3455 21.7908C54.1162 20.5441 55.2155 19.5128 56.6435 18.6968C58.0942 17.8581 59.6922 17.4388 61.4375 17.4388C63.6815 17.4388 65.4722 18.1074 66.8095 19.4448C68.1695 20.7594 68.8495 22.5614 68.8495 24.8508C68.8495 25.5081 68.7815 26.2108 68.6455 26.9588C68.3055 28.8628 67.6255 30.5401 66.6055 31.9908C65.5855 33.4414 64.3275 34.5634 62.8315 35.3568C61.3582 36.1501 59.7715 36.5468 58.0715 36.5468C56.3262 36.5468 54.8868 36.1388 53.7535 35.3228C52.6202 34.4841 51.8608 33.4414 51.4755 32.1948L49.2315 45.0468H46.8515L51.6795 17.7108H54.0595L53.3455 21.7908ZM66.2315 26.9588C66.3448 26.2788 66.4015 25.7008 66.4015 25.2248C66.4015 23.4341 65.8688 22.0401 64.8035 21.0428C63.7608 20.0228 62.3782 19.5128 60.6555 19.5128C59.3862 19.5128 58.1735 19.8188 57.0175 20.4308C55.8615 21.0428 54.8755 21.9154 54.0595 23.0488C53.2435 24.1821 52.6995 25.4968 52.4275 26.9928C52.3142 27.6274 52.2575 28.1941 52.2575 28.6928C52.2575 30.4608 52.7902 31.8661 53.8555 32.9088C54.9208 33.9514 56.3035 34.4728 58.0035 34.4728C59.3182 34.4728 60.5422 34.1781 61.6755 33.5888C62.8315 32.9768 63.8062 32.1041 64.5995 30.9708C65.4155 29.8148 65.9595 28.4774 66.2315 26.9588ZM84.3469 32.5008C83.5989 33.7021 82.5222 34.6881 81.1169 35.4588C79.7342 36.2294 78.1929 36.6148 76.4929 36.6148C74.8609 36.6148 73.5575 36.1954 72.5829 35.3568C71.6309 34.4954 71.1549 33.3168 71.1549 31.8208C71.1549 30.5288 71.5062 29.3954 72.2089 28.4208C72.9342 27.4461 73.9315 26.6981 75.2009 26.1768C76.4702 25.6328 77.8869 25.3608 79.4509 25.3608H85.6049C85.6955 24.5901 85.7409 24.0574 85.7409 23.7628C85.7409 22.3121 85.3669 21.2128 84.6189 20.4648C83.8935 19.6941 82.8169 19.3088 81.3889 19.3088C79.9609 19.3088 78.7142 19.7168 77.6489 20.5328C76.5835 21.3488 75.8015 22.5048 75.3029 24.0008H72.9569C73.6142 21.9834 74.7022 20.3741 76.2209 19.1728C77.7395 17.9488 79.6095 17.3368 81.8309 17.3368C83.7575 17.3368 85.2989 17.8694 86.4549 18.9348C87.6109 20.0001 88.1889 21.5074 88.1889 23.4568C88.1889 24.0461 88.1209 24.7034 87.9849 25.4288L86.0809 36.2748H83.7009L84.3469 32.5008ZM77.3769 34.5408C78.5329 34.5408 79.6549 34.2801 80.7429 33.7588C81.8535 33.2148 82.8055 32.4441 83.5989 31.4468C84.3922 30.4268 84.9135 29.2368 85.1629 27.8768L85.2989 27.1288H79.1449C77.4449 27.1288 76.0962 27.5368 75.0989 28.3528C74.1015 29.1461 73.6029 30.1548 73.6029 31.3788C73.6029 32.3534 73.9429 33.1241 74.6229 33.6908C75.3029 34.2574 76.2209 34.5408 77.3769 34.5408ZM97.7012 36.5468C95.8198 36.5468 94.2898 36.1161 93.1112 35.2548C91.9325 34.3708 91.3432 33.1694 91.3432 31.6508C91.3432 31.3788 91.3545 31.1748 91.3772 31.0388H93.6892C93.5985 32.1268 93.9158 32.9994 94.6412 33.6568C95.3665 34.3141 96.4318 34.6428 97.8372 34.6428C99.2652 34.6428 100.41 34.3481 101.271 33.7588C102.132 33.1468 102.563 32.3421 102.563 31.3448C102.563 30.7554 102.382 30.2568 102.019 29.8488C101.656 29.4408 101.203 29.1121 100.659 28.8628C100.138 28.5908 99.4012 28.2848 98.4492 27.9448C97.2705 27.5141 96.3185 27.1174 95.5932 26.7548C94.8905 26.3694 94.2785 25.8481 93.7572 25.1908C93.2585 24.5108 93.0092 23.6608 93.0092 22.6408C93.0092 21.6208 93.3038 20.7141 93.8932 19.9208C94.4825 19.1274 95.2872 18.5154 96.3072 18.0848C97.3498 17.6541 98.5285 17.4388 99.8432 17.4388C101.679 17.4388 103.175 17.8921 104.331 18.7988C105.51 19.7054 106.099 20.9068 106.099 22.4028C106.099 22.7201 106.088 22.9581 106.065 23.1168H103.821C103.844 23.0261 103.855 22.8788 103.855 22.6748C103.855 21.6774 103.458 20.8728 102.665 20.2608C101.894 19.6488 100.897 19.3428 99.6732 19.3428C98.4492 19.3428 97.4292 19.6374 96.6132 20.2268C95.8198 20.7934 95.4232 21.5641 95.4232 22.5388C95.4232 23.1961 95.6158 23.7514 96.0012 24.2048C96.3865 24.6354 96.8625 24.9868 97.4292 25.2588C97.9958 25.5308 98.7552 25.8481 99.7072 26.2108C100.84 26.6414 101.747 27.0381 102.427 27.4008C103.13 27.7634 103.719 28.2621 104.195 28.8968C104.671 29.5314 104.909 30.3248 104.909 31.2768C104.909 32.8861 104.24 34.1668 102.903 35.1188C101.566 36.0708 99.8318 36.5468 97.7012 36.5468ZM115.033 36.5468C113.152 36.5468 111.622 36.1161 110.443 35.2548C109.265 34.3708 108.675 33.1694 108.675 31.6508C108.675 31.3788 108.687 31.1748 108.709 31.0388H111.021C110.931 32.1268 111.248 32.9994 111.973 33.6568C112.699 34.3141 113.764 34.6428 115.169 34.6428C116.597 34.6428 117.742 34.3481 118.603 33.7588C119.465 33.1468 119.895 32.3421 119.895 31.3448C119.895 30.7554 119.714 30.2568 119.351 29.8488C118.989 29.4408 118.535 29.1121 117.991 28.8628C117.47 28.5908 116.733 28.2848 115.781 27.9448C114.603 27.5141 113.651 27.1174 112.925 26.7548C112.223 26.3694 111.611 25.8481 111.089 25.1908C110.591 24.5108 110.341 23.6608 110.341 22.6408C110.341 21.6208 110.636 20.7141 111.225 19.9208C111.815 19.1274 112.619 18.5154 113.639 18.0848C114.682 17.6541 115.861 17.4388 117.175 17.4388C119.011 17.4388 120.507 17.8921 121.663 18.7988C122.842 19.7054 123.431 20.9068 123.431 22.4028C123.431 22.7201 123.42 22.9581 123.397 23.1168H121.153C121.176 23.0261 121.187 22.8788 121.187 22.6748C121.187 21.6774 120.791 20.8728 119.997 20.2608C119.227 19.6488 118.229 19.3428 117.005 19.3428C115.781 19.3428 114.761 19.6374 113.945 20.2268C113.152 20.7934 112.755 21.5641 112.755 22.5388C112.755 23.1961 112.948 23.7514 113.333 24.2048C113.719 24.6354 114.195 24.9868 114.761 25.2588C115.328 25.5308 116.087 25.8481 117.039 26.2108C118.173 26.6414 119.079 27.0381 119.759 27.4008C120.462 27.7634 121.051 28.2621 121.527 28.8968C122.003 29.5314 122.241 30.3248 122.241 31.2768C122.241 32.8861 121.573 34.1668 120.235 35.1188C118.898 36.0708 117.164 36.5468 115.033 36.5468Z" fill="white"/>
<g clip-path="url(#clip0_2008_1307)">
<path d="M28.8246 9.5658H17.5581L14.0879 26.2403L11.8537 9.5658H1.39551L7.71795 36.9837H19.6024L23.0251 21.5246L26.2576 36.9837L30.1663 15.7493L28.8246 9.5658Z" fill="white"/>
<path d="M47.3687 0H35.7752L32.9965 23.2253H42.0995L47.3687 0Z" fill="white"/>
<path d="M29.8796 36.9925H40.4204L42.2427 26.6041H31.702L29.8796 36.9925Z" fill="#CC3366"/>
</g>
<defs>
<clipPath id="clip0_2008_1307">
<rect width="46" height="37" fill="white" transform="translate(1.39551)"/>
</clipPath>
</defs>
</svg>
