<svg width="82" height="28" viewBox="0 0 82 28" fill="none" xmlns="http://www.w3.org/2000/svg">
<g filter="url(#filter0_d_2144_3597)">
<rect x="2" y="2.28296" width="78" height="23" rx="11.5" fill="#CC3366"/>
<rect x="2.5" y="2.78296" width="77" height="22" rx="11" stroke="#E43A73"/>
<path d="M18.2687 10.363V17.283H17.3587V12.123L15.0587 17.283H14.4187L12.1087 12.113V17.283H11.1987V10.363H12.1787L14.7387 16.083L17.2987 10.363H18.2687ZM22.202 17.373C21.6887 17.373 21.222 17.2563 20.802 17.023C20.3887 16.7896 20.062 16.4596 19.822 16.033C19.5887 15.5996 19.472 15.0996 19.472 14.533C19.472 13.973 19.592 13.4796 19.832 13.053C20.0787 12.6196 20.412 12.2896 20.832 12.063C21.252 11.8296 21.722 11.713 22.242 11.713C22.762 11.713 23.232 11.8296 23.652 12.063C24.072 12.2896 24.402 12.6163 24.642 13.043C24.8887 13.4696 25.012 13.9663 25.012 14.533C25.012 15.0996 24.8853 15.5996 24.632 16.033C24.3853 16.4596 24.0487 16.7896 23.622 17.023C23.1953 17.2563 22.722 17.373 22.202 17.373ZM22.202 16.573C22.5287 16.573 22.8353 16.4963 23.122 16.343C23.4087 16.1896 23.6387 15.9596 23.812 15.653C23.992 15.3463 24.082 14.973 24.082 14.533C24.082 14.093 23.9953 13.7196 23.822 13.413C23.6487 13.1063 23.422 12.8796 23.142 12.733C22.862 12.5796 22.5587 12.503 22.232 12.503C21.8987 12.503 21.592 12.5796 21.312 12.733C21.0387 12.8796 20.8187 13.1063 20.652 13.413C20.4853 13.7196 20.402 14.093 20.402 14.533C20.402 14.9796 20.482 15.3563 20.642 15.663C20.8087 15.9696 21.0287 16.1996 21.302 16.353C21.5753 16.4996 21.8753 16.573 22.202 16.573ZM25.8685 14.523C25.8685 13.963 25.9818 13.473 26.2085 13.053C26.4351 12.6263 26.7451 12.2963 27.1385 12.063C27.5385 11.8296 27.9851 11.713 28.4785 11.713C28.9051 11.713 29.3018 11.813 29.6685 12.013C30.0351 12.2063 30.3151 12.463 30.5085 12.783V9.88296H31.4285V17.283H30.5085V16.253C30.3285 16.5796 30.0618 16.8496 29.7085 17.063C29.3551 17.2696 28.9418 17.373 28.4685 17.373C27.9818 17.373 27.5385 17.253 27.1385 17.013C26.7451 16.773 26.4351 16.4363 26.2085 16.003C25.9818 15.5696 25.8685 15.0763 25.8685 14.523ZM30.5085 14.533C30.5085 14.1196 30.4251 13.7596 30.2585 13.453C30.0918 13.1463 29.8651 12.913 29.5785 12.753C29.2985 12.5863 28.9885 12.503 28.6485 12.503C28.3085 12.503 27.9985 12.583 27.7185 12.743C27.4385 12.903 27.2151 13.1363 27.0485 13.443C26.8818 13.7496 26.7985 14.1096 26.7985 14.523C26.7985 14.943 26.8818 15.3096 27.0485 15.623C27.2151 15.9296 27.4385 16.1663 27.7185 16.333C27.9985 16.493 28.3085 16.573 28.6485 16.573C28.9885 16.573 29.2985 16.493 29.5785 16.333C29.8651 16.1663 30.0918 15.9296 30.2585 15.623C30.4251 15.3096 30.5085 14.9463 30.5085 14.533ZM35.3563 17.373C34.843 17.373 34.3763 17.2563 33.9563 17.023C33.543 16.7896 33.2163 16.4596 32.9763 16.033C32.743 15.5996 32.6263 15.0996 32.6263 14.533C32.6263 13.973 32.7463 13.4796 32.9863 13.053C33.233 12.6196 33.5663 12.2896 33.9863 12.063C34.4063 11.8296 34.8763 11.713 35.3963 11.713C35.9163 11.713 36.3863 11.8296 36.8063 12.063C37.2263 12.2896 37.5563 12.6163 37.7963 13.043C38.043 13.4696 38.1663 13.9663 38.1663 14.533C38.1663 15.0996 38.0396 15.5996 37.7863 16.033C37.5396 16.4596 37.203 16.7896 36.7763 17.023C36.3496 17.2563 35.8763 17.373 35.3563 17.373ZM35.3563 16.573C35.683 16.573 35.9896 16.4963 36.2763 16.343C36.563 16.1896 36.793 15.9596 36.9663 15.653C37.1463 15.3463 37.2363 14.973 37.2363 14.533C37.2363 14.093 37.1496 13.7196 36.9763 13.413C36.803 13.1063 36.5763 12.8796 36.2963 12.733C36.0163 12.5796 35.713 12.503 35.3863 12.503C35.053 12.503 34.7463 12.5796 34.4663 12.733C34.193 12.8796 33.973 13.1063 33.8063 13.413C33.6396 13.7196 33.5563 14.093 33.5563 14.533C33.5563 14.9796 33.6363 15.3563 33.7963 15.663C33.963 15.9696 34.183 16.1996 34.4563 16.353C34.7296 16.4996 35.0296 16.573 35.3563 16.573ZM44.4188 17.373C43.9055 17.373 43.4388 17.2563 43.0188 17.023C42.6055 16.7896 42.2788 16.4596 42.0388 16.033C41.8055 15.5996 41.6888 15.0996 41.6888 14.533C41.6888 13.973 41.8088 13.4796 42.0488 13.053C42.2955 12.6196 42.6288 12.2896 43.0488 12.063C43.4688 11.8296 43.9388 11.713 44.4588 11.713C44.9788 11.713 45.4488 11.8296 45.8688 12.063C46.2888 12.2896 46.6188 12.6163 46.8588 13.043C47.1055 13.4696 47.2288 13.9663 47.2288 14.533C47.2288 15.0996 47.1021 15.5996 46.8488 16.033C46.6021 16.4596 46.2655 16.7896 45.8388 17.023C45.4121 17.2563 44.9388 17.373 44.4188 17.373ZM44.4188 16.573C44.7455 16.573 45.0521 16.4963 45.3388 16.343C45.6255 16.1896 45.8555 15.9596 46.0288 15.653C46.2088 15.3463 46.2988 14.973 46.2988 14.533C46.2988 14.093 46.2121 13.7196 46.0388 13.413C45.8655 13.1063 45.6388 12.8796 45.3588 12.733C45.0788 12.5796 44.7755 12.503 44.4488 12.503C44.1155 12.503 43.8088 12.5796 43.5288 12.733C43.2555 12.8796 43.0355 13.1063 42.8688 13.413C42.7021 13.7196 42.6188 14.093 42.6188 14.533C42.6188 14.9796 42.6988 15.3563 42.8588 15.663C43.0255 15.9696 43.2455 16.1996 43.5188 16.353C43.7921 16.4996 44.0921 16.573 44.4188 16.573ZM51.0953 11.703C51.7619 11.703 52.3019 11.9063 52.7153 12.313C53.1286 12.713 53.3353 13.293 53.3353 14.053V17.283H52.4353V14.183C52.4353 13.6363 52.2986 13.2196 52.0253 12.933C51.7519 12.6396 51.3786 12.493 50.9053 12.493C50.4253 12.493 50.0419 12.643 49.7553 12.943C49.4753 13.243 49.3353 13.6796 49.3353 14.253V17.283H48.4253V11.803H49.3353V12.583C49.5153 12.303 49.7586 12.0863 50.0653 11.933C50.3786 11.7796 50.7219 11.703 51.0953 11.703ZM55.7318 9.88296V17.283H54.8218V9.88296H55.7318ZM57.7527 10.913C57.5794 10.913 57.4327 10.853 57.3127 10.733C57.1927 10.613 57.1327 10.4663 57.1327 10.293C57.1327 10.1196 57.1927 9.97296 57.3127 9.85296C57.4327 9.73296 57.5794 9.67296 57.7527 9.67296C57.9194 9.67296 58.0594 9.73296 58.1727 9.85296C58.2927 9.97296 58.3527 10.1196 58.3527 10.293C58.3527 10.4663 58.2927 10.613 58.1727 10.733C58.0594 10.853 57.9194 10.913 57.7527 10.913ZM58.1927 11.803V17.283H57.2827V11.803H58.1927ZM62.4136 11.703C63.0803 11.703 63.6203 11.9063 64.0336 12.313C64.447 12.713 64.6536 13.293 64.6536 14.053V17.283H63.7536V14.183C63.7536 13.6363 63.617 13.2196 63.3436 12.933C63.0703 12.6396 62.697 12.493 62.2236 12.493C61.7436 12.493 61.3603 12.643 61.0736 12.943C60.7936 13.243 60.6536 13.6796 60.6536 14.253V17.283H59.7436V11.803H60.6536V12.583C60.8336 12.303 61.077 12.0863 61.3836 11.933C61.697 11.7796 62.0403 11.703 62.4136 11.703ZM71.1401 14.333C71.1401 14.5063 71.1301 14.6896 71.1101 14.883H66.7301C66.7635 15.423 66.9468 15.8463 67.2801 16.153C67.6201 16.453 68.0301 16.603 68.5101 16.603C68.9035 16.603 69.2301 16.513 69.4901 16.333C69.7568 16.1463 69.9435 15.8996 70.0501 15.593H71.0301C70.8835 16.1196 70.5901 16.5496 70.1501 16.883C69.7101 17.2096 69.1635 17.373 68.5101 17.373C67.9901 17.373 67.5235 17.2563 67.1101 17.023C66.7035 16.7896 66.3835 16.4596 66.1501 16.033C65.9168 15.5996 65.8001 15.0996 65.8001 14.533C65.8001 13.9663 65.9135 13.4696 66.1401 13.043C66.3668 12.6163 66.6835 12.2896 67.0901 12.063C67.5035 11.8296 67.9768 11.713 68.5101 11.713C69.0301 11.713 69.4901 11.8263 69.8901 12.053C70.2901 12.2796 70.5968 12.593 70.8101 12.993C71.0301 13.3863 71.1401 13.833 71.1401 14.333ZM70.2001 14.143C70.2001 13.7963 70.1235 13.4996 69.9701 13.253C69.8168 12.9996 69.6068 12.8096 69.3401 12.683C69.0801 12.5496 68.7901 12.483 68.4701 12.483C68.0101 12.483 67.6168 12.6296 67.2901 12.923C66.9701 13.2163 66.7868 13.623 66.7401 14.143H70.2001Z" fill="white"/>
</g>
<defs>
<filter id="filter0_d_2144_3597" x="0" y="0.282959" width="82" height="27" filterUnits="userSpaceOnUse" color-interpolation-filters="sRGB">
<feFlood flood-opacity="0" result="BackgroundImageFix"/>
<feColorMatrix in="SourceAlpha" type="matrix" values="0 0 0 0 0 0 0 0 0 0 0 0 0 0 0 0 0 0 127 0" result="hardAlpha"/>
<feMorphology radius="2" operator="dilate" in="SourceAlpha" result="effect1_dropShadow_2144_3597"/>
<feOffset/>
<feComposite in2="hardAlpha" operator="out"/>
<feColorMatrix type="matrix" values="0 0 0 0 0.898039 0 0 0 0 0.701961 0 0 0 0 0.764706 0 0 0 0.5 0"/>
<feBlend mode="normal" in2="BackgroundImageFix" result="effect1_dropShadow_2144_3597"/>
<feBlend mode="normal" in="SourceGraphic" in2="effect1_dropShadow_2144_3597" result="shape"/>
</filter>
</defs>
</svg>
