<svg width="120" height="120" viewBox="0 0 120 120" fill="none" xmlns="http://www.w3.org/2000/svg">
<g id="scan">
<g id="Vector">
<path d="M97.5001 52.5H22.5V67.5001H97.5001V52.5Z" fill="#CED2DA"/>
<path d="M37.5 23.175V7.5C28.1318 9.08866 19.4895 13.5517 12.7706 20.2706C6.05162 26.9895 1.58866 35.6318 0 45H15.6675C17.0441 39.7528 19.7916 34.9662 23.6282 31.1309C27.4647 27.2957 32.2523 24.5498 37.5 23.175Z" fill="#CED2DA"/>
<path d="M104.333 45H120C118.411 35.6318 113.948 26.9895 107.23 20.2706C100.511 13.5517 91.8683 9.08866 82.5001 7.5V23.175C87.7478 24.5498 92.5354 27.2957 96.3719 31.1309C100.208 34.9662 102.956 39.7528 104.333 45Z" fill="#CED2DA"/>
<path d="M82.5001 96.8325V112.5C91.8688 110.912 100.512 106.45 107.231 99.7308C113.95 93.0116 118.412 84.3688 120 75.0001H104.333C102.956 80.2483 100.209 85.0361 96.3727 88.8726C92.5361 92.7091 87.7483 95.4564 82.5001 96.8325Z" fill="#CED2DA"/>
<path d="M15.6675 75.0001H0C1.58761 84.3688 6.05023 93.0116 12.7694 99.7308C19.4885 106.45 28.1313 110.912 37.5 112.5V96.8325C32.2518 95.4564 27.464 92.7091 23.6274 88.8726C19.7909 85.0361 17.0437 80.2483 15.6675 75.0001Z" fill="#CED2DA"/>
</g>
</g>
</svg>
