<svg width="34" height="35" viewBox="0 0 34 35" fill="none" xmlns="http://www.w3.org/2000/svg">
<g id="Group">
<g id="Vector">
<path d="M29.4999 0.833252H4.49992C3.39485 0.833252 2.33504 1.27143 1.55364 2.0514C0.772236 2.83137 0.333252 3.88924 0.333252 4.99228V21.6284C0.333252 22.7314 0.772236 23.7893 1.55364 24.5693C2.33504 25.3492 3.39485 25.7874 4.49992 25.7874H4.8791C4.48352 24.6828 4.40935 23.489 4.66522 22.3441C4.92109 21.1992 5.49654 20.1501 6.32493 19.318L12.5916 13.0545C13.7621 11.8881 15.348 11.2323 17.002 11.2308C18.6543 11.2328 20.2385 11.8878 21.4082 13.0525L27.677 19.3201C28.5148 20.1457 29.0967 21.1946 29.3531 22.3415C29.6095 23.4883 29.5295 24.6847 29.1228 25.7874H29.4999C30.605 25.7874 31.6648 25.3492 32.4462 24.5693C33.2276 23.7893 33.6666 22.7314 33.6666 21.6284V4.99228C33.6666 3.88924 33.2276 2.83137 32.4462 2.0514C31.6648 1.27143 30.605 0.833252 29.4999 0.833252ZM4.49992 21.6284H2.41659V4.99228H4.49992V21.6284ZM31.5833 21.6284H29.4999V4.99228H31.5833V21.6284Z" fill="#414E62"/>
<path d="M18.4583 15.995C18.2651 15.8033 18.0366 15.6507 17.7853 15.5458C17.4079 15.3901 16.9926 15.3497 16.5921 15.4297C16.1916 15.5096 15.8238 15.7064 15.5353 15.995L9.26658 22.2585C9.06033 22.4462 8.89437 22.6738 8.77871 22.9273C8.66306 23.1809 8.60013 23.4552 8.5937 23.7338C8.58727 24.0123 8.63749 24.2893 8.74133 24.5479C8.84517 24.8065 9.00048 25.0414 9.19785 25.2384C9.39523 25.4354 9.63056 25.5904 9.88965 25.6941C10.1487 25.7977 10.4262 25.8479 10.7053 25.8415C10.9843 25.835 11.2591 25.7722 11.5132 25.6568C11.7672 25.5413 11.9952 25.3757 12.1833 25.1698L14.9312 22.4228V32.0405C14.9224 32.3165 14.9693 32.5915 15.069 32.849C15.1688 33.1066 15.3194 33.3415 15.5118 33.5398C15.7043 33.7382 15.9348 33.8959 16.1895 34.0036C16.4443 34.1113 16.7181 34.1668 16.9947 34.1668C17.2714 34.1668 17.5452 34.1113 17.7999 34.0036C18.0547 33.8959 18.2851 33.7382 18.4776 33.5398C18.6701 33.3415 18.8207 33.1066 18.9204 32.849C19.0202 32.5915 19.0671 32.3165 19.0583 32.0405V22.4248L21.8041 25.1698C22.1965 25.527 22.7118 25.7195 23.2427 25.7073C23.7737 25.6951 24.2796 25.4791 24.6551 25.1043C25.0307 24.7294 25.247 24.2245 25.2593 23.6945C25.2715 23.1645 25.0786 22.6502 24.7207 22.2585L18.4583 15.995Z" fill="#414E62"/>
</g>
</g>
</svg>
