<svg width="36" height="35" viewBox="0 0 36 35" fill="none" xmlns="http://www.w3.org/2000/svg">
<g id="Group">
<g id="Vector">
<path d="M22.375 13.8884V13.125H18V10.9374H22.375V4.3749C22.3715 3.21564 21.9095 2.10486 21.0898 1.28513C20.2701 0.465401 19.1593 0.00334017 18 -0.00012207H15.8125C15.8125 1.16021 15.3516 2.27302 14.5311 3.09349C13.7106 3.91397 12.5978 4.3749 11.4375 4.3749C10.2772 4.3749 9.16438 3.91397 8.34391 3.09349C7.52343 2.27302 7.0625 1.16021 7.0625 -0.00012207H4.875C3.71574 0.00334017 2.60493 0.465401 1.78521 1.28513C0.965487 2.10486 0.503462 3.21564 0.5 4.3749V10.9374H4.875V13.125H0.5V30.6251C0.503462 31.7843 0.965487 32.8951 1.78521 33.7148C2.60493 34.5346 3.71574 34.9966 4.875 35.0001H7.0625C7.0625 33.8398 7.52343 32.7269 8.34391 31.9065C9.16438 31.086 10.2772 30.6251 11.4375 30.6251C12.5978 30.6251 13.7106 31.086 14.5311 31.9065C15.3516 32.7269 15.8125 33.8398 15.8125 35.0001H16.9872C15.5448 33.3982 14.5204 31.4649 14.0047 29.3719C13.489 27.2789 13.4981 25.0909 14.0311 23.0023C14.5641 20.9137 15.6046 18.9889 17.0602 17.399C18.5158 15.8091 20.3414 14.6032 22.375 13.8884ZM13.625 13.125H9.25V10.9374H13.625V13.125Z" fill="#414E62"/>
<path d="M33.2512 27.101C33.2906 26.819 33.3111 26.5347 33.3125 26.25C33.3106 25.9617 33.2901 25.6738 33.2512 25.3882L35.0996 23.9378C35.181 23.8717 35.2359 23.7786 35.2544 23.6754C35.2729 23.5722 35.2537 23.4659 35.2003 23.3756L33.4503 20.3503C33.4117 20.2835 33.3562 20.2282 33.2894 20.1897C33.2225 20.1513 33.1468 20.1313 33.0697 20.1316C33.016 20.1325 32.9628 20.1421 32.9121 20.16L30.7378 21.035C30.2865 20.6839 29.7907 20.3941 29.2634 20.1731L28.9375 17.8631C28.9163 17.7621 28.8615 17.6712 28.7821 17.6053C28.7026 17.5393 28.6032 17.5022 28.5 17.5H25C24.8948 17.5024 24.7937 17.5413 24.714 17.6099C24.6342 17.6785 24.5807 17.7726 24.5625 17.8762L24.2387 20.1884C23.7119 20.4119 23.2158 20.7015 22.7622 21.0503L20.5878 20.1753C20.4905 20.1372 20.3826 20.1352 20.2839 20.1697C20.1852 20.2042 20.1021 20.2729 20.0497 20.3634L18.2997 23.3888C18.2463 23.479 18.2271 23.5854 18.2456 23.6885C18.2641 23.7917 18.319 23.8849 18.4003 23.951L20.2509 25.4013C20.2108 25.6825 20.1896 25.966 20.1875 26.25C20.1901 26.5391 20.2113 26.8277 20.2509 27.1141L18.4003 28.5622C18.3184 28.6284 18.2631 28.722 18.2447 28.8256C18.2262 28.9293 18.2457 29.0362 18.2997 29.1266L20.0497 32.1497C20.1021 32.2402 20.1852 32.309 20.2839 32.3435C20.3826 32.378 20.4905 32.376 20.5878 32.3379L22.7622 31.4629C23.2134 31.8152 23.71 32.1051 24.2387 32.3247L24.5625 34.6391C24.5838 34.7399 24.6386 34.8305 24.7181 34.8961C24.7976 34.9617 24.897 34.9983 25 35.0001H28.5C28.6049 34.9981 28.706 34.9597 28.7858 34.8915C28.8656 34.8233 28.9192 34.7294 28.9375 34.626L29.2634 32.3138C29.7901 32.0862 30.2856 31.7921 30.7378 31.4388L32.9121 32.3138C33.0093 32.3521 33.1169 32.3545 33.2156 32.3204C33.3143 32.2863 33.3975 32.218 33.4503 32.1279L35.2003 29.1025C35.2537 29.0123 35.2729 28.906 35.2544 28.8028C35.2359 28.6996 35.181 28.6065 35.0996 28.5404L33.2512 27.101ZM26.75 29.5313C26.101 29.5313 25.4666 29.3389 24.927 28.9783C24.3874 28.6178 23.9668 28.1053 23.7185 27.5057C23.4701 26.9061 23.4051 26.2464 23.5318 25.6099C23.6584 24.9734 23.9709 24.3887 24.4298 23.9298C24.8887 23.4709 25.4734 23.1584 26.1099 23.0318C26.7464 22.9052 27.4061 22.9702 28.0057 23.2185C28.6053 23.4669 29.1177 23.8874 29.4782 24.427C29.8388 24.9666 30.0312 25.6011 30.0312 26.25C30.0312 27.1203 29.6856 27.9549 29.0702 28.5702C28.4548 29.1856 27.6202 29.5313 26.75 29.5313Z" fill="#414E62"/>
</g>
</g>
</svg>
